<svg width="56" height="44" viewBox="0 0 56 44" fill="none" xmlns="http://www.w3.org/2000/svg">
<rect width="56" height="44" fill="black"/>
<path fill-rule="evenodd" clip-rule="evenodd" d="M32 16H24C22.8954 16 22 16.8954 22 18V26C22 27.1046 22.8954 28 24 28H32C33.1046 28 34 27.1046 34 26V18C34 16.8954 33.1046 16 32 16ZM24 14C21.7909 14 20 15.7909 20 18V26C20 28.2091 21.7909 30 24 30H32C34.2091 30 36 28.2091 36 26V18C36 15.7909 34.2091 14 32 14H24ZM26 22C26 23.1046 26.8954 24 28 24C29.1046 24 30 23.1046 30 22C30 20.8954 29.1046 20 28 20C26.8954 20 26 20.8954 26 22ZM28 18C25.7909 18 24 19.7909 24 22C24 24.2091 25.7909 26 28 26C30.2091 26 32 24.2091 32 22C32 19.7909 30.2091 18 28 18ZM32 19C32.5523 19 33 18.5523 33 18C33 17.4477 32.5523 17 32 17C31.4477 17 31 17.4477 31 18C31 18.5523 31.4477 19 32 19Z" fill="white"/>
</svg>
