<svg width="56" height="44" viewBox="0 0 56 44" fill="none" xmlns="http://www.w3.org/2000/svg">
<rect width="56" height="44" fill="black"/>
<path d="M35.5185 16.5003C35.269 16.6109 35.0126 16.7043 34.7505 16.7801C35.0608 16.4292 35.2973 16.0164 35.4417 15.5647C35.474 15.4634 35.4405 15.3525 35.3573 15.2863C35.2741 15.22 35.1586 15.2121 35.0671 15.2663C34.5106 15.5964 33.9102 15.8336 33.2806 15.9723C32.6465 15.3527 31.7852 15 30.8948 15C29.0152 15 27.4861 16.5291 27.4861 18.4086C27.4861 18.5566 27.4955 18.7038 27.514 18.8489C25.1817 18.6442 23.0134 17.4978 21.5244 15.6713C21.4714 15.6062 21.3896 15.5712 21.3059 15.5779C21.2222 15.5844 21.1469 15.6316 21.1046 15.7042C20.8026 16.2224 20.643 16.8151 20.643 17.4181C20.643 18.2394 20.9362 19.0187 21.4542 19.6276C21.2967 19.573 21.1439 19.5049 20.998 19.4239C20.9197 19.3803 20.8241 19.381 20.7463 19.4256C20.6684 19.4702 20.6196 19.5522 20.6176 19.6419C20.6172 19.657 20.6172 19.6722 20.6172 19.6875C20.6172 20.9134 21.277 22.0172 22.2858 22.6188C22.1992 22.6101 22.1125 22.5975 22.0265 22.5811C21.9378 22.5642 21.8466 22.5952 21.7867 22.6629C21.7268 22.7305 21.707 22.8248 21.7346 22.9108C22.108 24.0766 23.0693 24.9341 24.2315 25.1955C23.2676 25.7992 22.1653 26.1155 21.0081 26.1155C20.7667 26.1155 20.5238 26.1013 20.2862 26.0731C20.1681 26.0591 20.0552 26.1288 20.015 26.2411C19.9748 26.3534 20.0174 26.4787 20.1179 26.543C21.6044 27.4962 23.3233 28 25.0886 28C28.559 28 30.73 26.3635 31.9401 24.9907C33.449 23.2788 34.3144 21.013 34.3144 18.7742C34.3144 18.6807 34.313 18.5862 34.3101 18.4921C34.9055 18.0436 35.418 17.5007 35.8351 16.8768C35.8985 16.7821 35.8916 16.6568 35.8182 16.5696C35.7449 16.4823 35.6227 16.4541 35.5185 16.5003Z" fill="white"/>
</svg>
