<svg width="56" height="44" viewBox="0 0 56 44" fill="none" xmlns="http://www.w3.org/2000/svg">
<rect width="56" height="44" fill="black"/>
<path d="M35.9151 26.027C35.8955 25.9805 35.8775 25.943 35.8612 25.9126C35.5836 25.3653 35.0529 24.6929 34.2692 23.8953L34.2529 23.8775L34.2447 23.8685L34.2365 23.8596H34.2284C33.8724 23.4876 33.6471 23.239 33.554 23.1121C33.3809 22.8688 33.3434 22.6221 33.4365 22.3735C33.5034 22.1857 33.7532 21.7869 34.1859 21.1789C34.4145 20.857 34.5941 20.5977 34.728 20.4028C35.6897 19.0043 36.1061 18.1101 35.9771 17.7203L35.9281 17.6291C35.8955 17.5736 35.8089 17.5236 35.6701 17.4789C35.5314 17.4324 35.3534 17.4252 35.1362 17.4556L32.7376 17.4735C32.6984 17.4592 32.6429 17.4592 32.5711 17.4789C32.4992 17.4967 32.4633 17.5057 32.4633 17.5057L32.4208 17.5289L32.3882 17.5557C32.3604 17.5736 32.3294 17.6058 32.2967 17.6523C32.2641 17.697 32.2363 17.7507 32.2135 17.8115C31.9522 18.5483 31.6551 19.2314 31.322 19.8645C31.1162 20.2418 30.9284 20.5691 30.7554 20.8463C30.5839 21.1234 30.4386 21.3273 30.3227 21.4579C30.2067 21.5884 30.1006 21.6939 30.0059 21.7726C29.9112 21.8513 29.8394 21.8853 29.7887 21.8728C29.7381 21.8602 29.6908 21.8477 29.6467 21.837C29.5683 21.7815 29.5063 21.7082 29.4589 21.6134C29.4116 21.5187 29.3789 21.4006 29.3626 21.2576C29.3462 21.1145 29.3365 20.9911 29.3332 20.8874C29.3299 20.7837 29.3316 20.637 29.3381 20.4492C29.3446 20.2615 29.3462 20.1327 29.3462 20.0665C29.3462 19.8359 29.3511 19.5837 29.3593 19.3137C29.3675 19.0436 29.374 18.829 29.3805 18.6699C29.3854 18.5125 29.3887 18.3444 29.3887 18.1674C29.3887 17.9903 29.3789 17.8526 29.3593 17.7525C29.3397 17.6523 29.3103 17.554 29.2728 17.461C29.2336 17.3662 29.1764 17.2929 29.1013 17.2428C29.0262 17.1909 28.9331 17.1498 28.8221 17.1194C28.5282 17.0461 28.1527 17.0067 27.6971 17.0014C26.6635 16.9889 26.0006 17.0622 25.7067 17.2213C25.5908 17.2875 25.4846 17.3787 25.3899 17.4949C25.2903 17.6291 25.2756 17.7024 25.3475 17.7131C25.6806 17.7686 25.9173 17.8991 26.0561 18.1048L26.1067 18.2138C26.1459 18.2925 26.1851 18.4338 26.2227 18.6341C26.2619 18.8344 26.2863 19.0561 26.2978 19.2994C26.3255 19.7429 26.3255 20.1238 26.2978 20.4403C26.27 20.7568 26.2439 21.0036 26.2194 21.1789C26.1949 21.3559 26.1574 21.499 26.1067 21.6081C26.0561 21.7172 26.0235 21.7851 26.0071 21.8084C25.9908 21.8334 25.9761 21.8477 25.9663 21.8531C25.8945 21.8835 25.8194 21.8996 25.741 21.8996C25.6626 21.8996 25.5695 21.8567 25.4585 21.7726C25.3475 21.6868 25.2315 21.5705 25.1124 21.4221C24.9932 21.2737 24.8576 21.0644 24.7074 20.7962C24.5572 20.5279 24.4021 20.2114 24.2404 19.8466L24.1065 19.5819C24.0233 19.412 23.909 19.1634 23.7653 18.838C23.6216 18.5125 23.4926 18.1978 23.3816 17.8937C23.3375 17.7668 23.2705 17.6684 23.1824 17.6022L23.1399 17.5754C23.1121 17.5504 23.0681 17.5253 23.006 17.4985C22.9456 17.4717 22.8803 17.452 22.815 17.4395L20.5323 17.4574C20.2988 17.4574 20.1404 17.5146 20.0571 17.6309L20.0245 17.6863C20.0082 17.7167 20 17.765 20 17.8329C20 17.8991 20.0163 17.9814 20.0506 18.0797C20.3837 18.9381 20.7462 19.7643 21.1381 20.5619C21.53 21.3595 21.8696 22.0015 22.1586 22.4879C22.4476 22.9744 22.7415 23.434 23.0419 23.8649C23.3424 24.2977 23.5399 24.5731 23.6379 24.6947C23.7359 24.8163 23.811 24.9075 23.8665 24.9683L24.0755 25.1865C24.2094 25.3332 24.4053 25.5066 24.6633 25.7105C24.9213 25.9144 25.2071 26.1146 25.5222 26.3132C25.8357 26.5099 26.2014 26.6726 26.6178 26.796C27.0342 26.9212 27.4391 26.9713 27.8343 26.9462H28.7927C28.987 26.9283 29.134 26.8604 29.2336 26.7459L29.2662 26.6994C29.2891 26.6637 29.3087 26.6064 29.3283 26.5313C29.3479 26.4544 29.3577 26.3722 29.3577 26.281C29.3528 26.0199 29.3707 25.7838 29.4116 25.5746C29.4524 25.3653 29.4997 25.2062 29.5536 25.1007C29.6059 24.9934 29.6663 24.904 29.7332 24.8324C29.8002 24.7591 29.8475 24.7144 29.8753 24.7001C29.903 24.684 29.9243 24.675 29.9422 24.6679C30.0761 24.6196 30.2329 24.6661 30.4125 24.8092C30.5937 24.9522 30.7619 25.1293 30.9203 25.3385C31.0787 25.5477 31.2681 25.7838 31.4901 26.0449C31.7122 26.306 31.9065 26.5009 32.0731 26.6297L32.2396 26.7388C32.3506 26.8121 32.496 26.8783 32.6723 26.9391C32.8503 26.9999 33.0054 27.016 33.1393 26.9838L35.2717 26.948C35.4824 26.948 35.6473 26.9104 35.7632 26.8336C35.8792 26.7567 35.9494 26.6744 35.9722 26.5832C35.9951 26.492 35.9951 26.3883 35.9771 26.272C35.9543 26.154 35.9347 26.0717 35.9151 26.027Z" fill="white"/>
</svg>
